<svg xmlns="http://www.w3.org/2000/svg" viewBox="0 0 1600 1067" width="1600" height="1067" role="img">
  <defs>
    <radialGradient id="glow" cx="73.3%" cy="40.3%" r="70%">
      <stop offset="0%" stop-color="#1c2a22" stop-opacity="0.9"/>
      <stop offset="45%" stop-color="#0B1712" stop-opacity="0.9"/>
      <stop offset="100%" stop-color="#070707"/>
    </radialGradient>
    <linearGradient id="vignette" x1="0" y1="0" x2="0" y2="1">
      <stop offset="0%" stop-color="#070707" stop-opacity="0.5"/>
      <stop offset="55%" stop-color="#070707" stop-opacity="0"/>
      <stop offset="100%" stop-color="#070707" stop-opacity="0.85"/>
    </linearGradient>
  </defs>
  <rect width="1600" height="1067" fill="url(#glow)"/>
  <polyline points="0,1067 0,666 160,657 320,649 480,643 640,639 800,637 960,639 1120,643 1280,649 1440,657 1600,666 1600,1067" fill="#0B1712" fill-opacity="0.16" stroke="none"/><polyline points="0,1067 0,602 160,581 320,568 480,568 640,581 800,602 960,623 1120,636 1280,636 1440,623 1600,602 1600,1067" fill="#0B1712" fill-opacity="0.12" stroke="none"/><polyline points="0,1067 0,538 160,517 320,513 480,530 640,554 800,565 960,554 1120,530 1280,513 1440,517 1600,538 1600,1067" fill="#0B1712" fill-opacity="0.08" stroke="none"/>
  <circle cx="1173" cy="430" r="235" fill="#C7A96B" fill-opacity="0.05"/>
  <rect width="1600" height="1067" fill="url(#vignette)"/>
  <rect x="760" y="1011" width="80" height="1" fill="#C7A96B" fill-opacity="0.6"/>
  <text x="800" y="1039" text-anchor="middle" fill="#C7A96B" fill-opacity="0.5" font-family="Georgia, serif" font-size="20" letter-spacing="4">VILLA</text>
</svg>