<svg xmlns="http://www.w3.org/2000/svg" viewBox="0 0 1600 1067" width="1600" height="1067" role="img">
  <defs>
    <radialGradient id="glow" cx="25.6%" cy="40.9%" r="70%">
      <stop offset="0%" stop-color="#1c2a22" stop-opacity="0.9"/>
      <stop offset="45%" stop-color="#0B1712" stop-opacity="0.9"/>
      <stop offset="100%" stop-color="#070707"/>
    </radialGradient>
    <linearGradient id="vignette" x1="0" y1="0" x2="0" y2="1">
      <stop offset="0%" stop-color="#070707" stop-opacity="0.5"/>
      <stop offset="55%" stop-color="#070707" stop-opacity="0"/>
      <stop offset="100%" stop-color="#070707" stop-opacity="0.85"/>
    </linearGradient>
  </defs>
  <rect width="1600" height="1067" fill="url(#glow)"/>
  <polyline points="0,1067 0,658 160,649 320,641 480,635 640,631 800,629 960,631 1120,635 1280,641 1440,649 1600,658 1600,1067" fill="#0B1712" fill-opacity="0.16" stroke="none"/><polyline points="0,1067 0,594 160,573 320,559 480,559 640,573 800,594 960,615 1120,629 1280,629 1440,615 1600,594 1600,1067" fill="#0B1712" fill-opacity="0.12" stroke="none"/><polyline points="0,1067 0,530 160,503 320,499 480,520 640,549 800,563 960,549 1120,520 1280,499 1440,503 1600,530 1600,1067" fill="#0B1712" fill-opacity="0.08" stroke="none"/>
  <circle cx="409" cy="436" r="235" fill="#C7A96B" fill-opacity="0.05"/>
  <rect width="1600" height="1067" fill="url(#vignette)"/>
  <rect x="760" y="1011" width="80" height="1" fill="#C7A96B" fill-opacity="0.6"/>
  <text x="800" y="1039" text-anchor="middle" fill="#C7A96B" fill-opacity="0.5" font-family="Georgia, serif" font-size="20" letter-spacing="4">GOLDEN BRIDGE</text>
</svg>