<svg xmlns="http://www.w3.org/2000/svg" viewBox="0 0 1200 1500" width="1200" height="1500" role="img">
  <defs>
    <radialGradient id="glow" cx="35.5%" cy="42.9%" r="70%">
      <stop offset="0%" stop-color="#1c2a22" stop-opacity="0.9"/>
      <stop offset="45%" stop-color="#0B1712" stop-opacity="0.9"/>
      <stop offset="100%" stop-color="#070707"/>
    </radialGradient>
    <linearGradient id="vignette" x1="0" y1="0" x2="0" y2="1">
      <stop offset="0%" stop-color="#070707" stop-opacity="0.5"/>
      <stop offset="55%" stop-color="#070707" stop-opacity="0"/>
      <stop offset="100%" stop-color="#070707" stop-opacity="0.85"/>
    </linearGradient>
  </defs>
  <rect width="1200" height="1500" fill="url(#glow)"/>
  <polyline points="0,1500 0,936 120,928 240,920 360,914 480,911 600,909 720,911 840,914 960,920 1080,928 1200,936 1200,1500" fill="#0B1712" fill-opacity="0.16" stroke="none"/><polyline points="0,1500 0,846 120,830 240,820 360,820 480,830 600,846 720,862 840,872 960,872 1080,862 1200,846 1200,1500" fill="#0B1712" fill-opacity="0.12" stroke="none"/><polyline points="0,1500 0,756 120,728 240,723 360,745 480,776 600,791 720,776 840,745 960,723 1080,728 1200,756 1200,1500" fill="#0B1712" fill-opacity="0.08" stroke="none"/>
  <circle cx="426" cy="644" r="330" fill="#C7A96B" fill-opacity="0.05"/>
  <rect width="1200" height="1500" fill="url(#vignette)"/>
  <rect x="560" y="1444" width="80" height="1" fill="#C7A96B" fill-opacity="0.6"/>
  <text x="600" y="1472" text-anchor="middle" fill="#C7A96B" fill-opacity="0.5" font-family="Georgia, serif" font-size="20" letter-spacing="4">PORTRAIT . SWAP</text>
</svg>