<svg xmlns="http://www.w3.org/2000/svg" viewBox="0 0 1600 1067" width="1600" height="1067" role="img">
  <defs>
    <radialGradient id="glow" cx="57.1%" cy="49.6%" r="70%">
      <stop offset="0%" stop-color="#1c2a22" stop-opacity="0.9"/>
      <stop offset="45%" stop-color="#0B1712" stop-opacity="0.9"/>
      <stop offset="100%" stop-color="#070707"/>
    </radialGradient>
    <linearGradient id="vignette" x1="0" y1="0" x2="0" y2="1">
      <stop offset="0%" stop-color="#070707" stop-opacity="0.5"/>
      <stop offset="55%" stop-color="#070707" stop-opacity="0"/>
      <stop offset="100%" stop-color="#070707" stop-opacity="0.85"/>
    </linearGradient>
  </defs>
  <rect width="1600" height="1067" fill="url(#glow)"/>
  <polyline points="0,1067 0,698 160,691 320,684 480,679 640,676 800,674 960,676 1120,679 1280,684 1440,691 1600,698 1600,1067" fill="#0B1712" fill-opacity="0.16" stroke="none"/><polyline points="0,1067 0,634 160,619 320,610 480,610 640,619 800,634 960,649 1120,658 1280,658 1440,649 1600,634 1600,1067" fill="#0B1712" fill-opacity="0.12" stroke="none"/><polyline points="0,1067 0,570 160,543 320,538 480,560 640,590 800,604 960,590 1120,560 1280,538 1440,543 1600,570 1600,1067" fill="#0B1712" fill-opacity="0.08" stroke="none"/>
  <circle cx="914" cy="529" r="235" fill="#C7A96B" fill-opacity="0.05"/>
  <rect width="1600" height="1067" fill="url(#vignette)"/>
  <rect x="760" y="1011" width="80" height="1" fill="#C7A96B" fill-opacity="0.6"/>
  
</svg>