<svg xmlns="http://www.w3.org/2000/svg" viewBox="0 0 1600 1067" width="1600" height="1067" role="img">
  <defs>
    <radialGradient id="glow" cx="35.3%" cy="44.2%" r="70%">
      <stop offset="0%" stop-color="#1c2a22" stop-opacity="0.9"/>
      <stop offset="45%" stop-color="#0B1712" stop-opacity="0.9"/>
      <stop offset="100%" stop-color="#070707"/>
    </radialGradient>
    <linearGradient id="vignette" x1="0" y1="0" x2="0" y2="1">
      <stop offset="0%" stop-color="#070707" stop-opacity="0.5"/>
      <stop offset="55%" stop-color="#070707" stop-opacity="0"/>
      <stop offset="100%" stop-color="#070707" stop-opacity="0.85"/>
    </linearGradient>
  </defs>
  <rect width="1600" height="1067" fill="url(#glow)"/>
  <polyline points="0,1067 0,665 160,658 320,652 480,647 640,644 800,643 960,644 1120,647 1280,652 1440,658 1600,665 1600,1067" fill="#0B1712" fill-opacity="0.16" stroke="none"/><polyline points="0,1067 0,601 160,590 320,583 480,583 640,590 800,601 960,612 1120,619 1280,619 1440,612 1600,601 1600,1067" fill="#0B1712" fill-opacity="0.12" stroke="none"/><polyline points="0,1067 0,537 160,520 320,518 480,531 640,549 800,557 960,549 1120,531 1280,518 1440,520 1600,537 1600,1067" fill="#0B1712" fill-opacity="0.08" stroke="none"/>
  <circle cx="564" cy="472" r="235" fill="#C7A96B" fill-opacity="0.05"/>
  <rect width="1600" height="1067" fill="url(#vignette)"/>
  <rect x="760" y="1011" width="80" height="1" fill="#C7A96B" fill-opacity="0.6"/>
  <text x="800" y="1039" text-anchor="middle" fill="#C7A96B" fill-opacity="0.5" font-family="Georgia, serif" font-size="20" letter-spacing="4">APARTMENT</text>
</svg>