<svg xmlns="http://www.w3.org/2000/svg" viewBox="0 0 1600 1067" width="1600" height="1067" role="img">
  <defs>
    <radialGradient id="glow" cx="29.6%" cy="33.3%" r="70%">
      <stop offset="0%" stop-color="#1c2a22" stop-opacity="0.9"/>
      <stop offset="45%" stop-color="#0B1712" stop-opacity="0.9"/>
      <stop offset="100%" stop-color="#070707"/>
    </radialGradient>
    <linearGradient id="vignette" x1="0" y1="0" x2="0" y2="1">
      <stop offset="0%" stop-color="#070707" stop-opacity="0.5"/>
      <stop offset="55%" stop-color="#070707" stop-opacity="0"/>
      <stop offset="100%" stop-color="#070707" stop-opacity="0.85"/>
    </linearGradient>
  </defs>
  <rect width="1600" height="1067" fill="url(#glow)"/>
  <polyline points="0,1067 0,700 160,692 320,686 480,680 640,677 800,676 960,677 1120,680 1280,686 1440,692 1600,700 1600,1067" fill="#0B1712" fill-opacity="0.16" stroke="none"/><polyline points="0,1067 0,636 160,611 320,596 480,596 640,611 800,636 960,661 1120,676 1280,676 1440,661 1600,636 1600,1067" fill="#0B1712" fill-opacity="0.12" stroke="none"/><polyline points="0,1067 0,572 160,546 320,542 480,562 640,591 800,604 960,591 1120,562 1280,542 1440,546 1600,572 1600,1067" fill="#0B1712" fill-opacity="0.08" stroke="none"/>
  <circle cx="473" cy="355" r="235" fill="#C7A96B" fill-opacity="0.05"/>
  <rect width="1600" height="1067" fill="url(#vignette)"/>
  <rect x="760" y="1011" width="80" height="1" fill="#C7A96B" fill-opacity="0.6"/>
  
</svg>